<svg width="101" height="101" viewBox="0 0 101 101" fill="none" xmlns="http://www.w3.org/2000/svg">
<path d="M50.0369 97.646C76.2472 97.646 97.4947 76.3985 97.4947 50.1882C97.4947 23.9782 76.2472 2.73073 50.0369 2.73073C23.8269 2.73073 2.57935 23.9782 2.57935 50.1882C2.57935 76.3985 23.8269 97.646 50.0369 97.646Z" fill="white"/>
<path d="M50.0372 0.188232C22.423 0.188232 0.0372314 22.574 0.0372314 50.1882C0.0372314 77.8026 22.423 100.188 50.0372 100.188C77.6516 100.188 100.037 77.8026 100.037 50.1882C100.037 22.574 77.6516 0.188232 50.0372 0.188232ZM50.0372 5.27298C74.8432 5.27298 94.9525 25.3822 94.9525 50.1882C94.9525 74.9942 74.8432 95.1035 50.0372 95.1035C25.2312 95.1035 5.12198 74.9942 5.12198 50.1882C5.12198 25.3822 25.2312 5.27298 50.0372 5.27298Z" fill="#4000BF"/>
<path fill-rule="evenodd" clip-rule="evenodd" d="M50.6022 14.5952C70.26 14.5952 86.1957 30.5307 86.1957 50.1885C86.1957 69.846 70.26 85.7817 50.6022 85.7817C30.9448 85.7817 15.0092 69.846 15.0092 50.1885C15.0092 45.3842 15.9609 40.8023 17.6863 36.621C20.2055 40.0517 24.2682 42.2789 28.8509 42.2789C36.4957 42.2789 42.6928 36.0817 42.6928 28.437C42.6928 23.8542 40.4657 19.7916 37.0347 17.2724C41.2163 15.547 45.7982 14.5952 50.6022 14.5952Z" fill="url(#paint0_linear_301_6072)"/>
<defs>
<linearGradient id="paint0_linear_301_6072" x1="50.6022" y1="85.7817" x2="50.6022" y2="14.5952" gradientUnits="userSpaceOnUse">
<stop stop-color="#7400E1"/>
<stop offset="1" stop-color="#4000BF"/>
</linearGradient>
</defs>
</svg>
