<svg width="384" height="72" viewBox="0 0 384 72" fill="none" xmlns="http://www.w3.org/2000/svg">
<path fill-rule="evenodd" clip-rule="evenodd" d="M86.4948 9.65653H78L78.0021 59.9922H86.4948V9.65653ZM102.256 24.0465H93.7641V59.9922H102.256V24.0465ZM102.256 9.26953H93.7641V18.4307H102.256V9.26953ZM114.72 24.0465H105.593L118.442 59.9922H127.919L140.768 24.0465H131.781L126.41 41.0724C126.27 41.5152 125.767 43.248 124.901 46.2666L123.181 52.0587C122.164 48.3831 121.099 44.7207 119.988 41.0724L114.72 24.0465ZM175.556 35.2803C174.852 32.8701 173.822 30.8211 172.464 29.1355C170.941 27.2436 169.013 25.7794 166.674 24.7495C164.356 23.6961 161.782 23.1714 158.951 23.1714C153.569 23.1714 149.263 24.8549 146.033 28.224C144.422 29.9646 143.191 32.0211 142.417 34.2633C141.622 36.5787 141.224 39.1416 141.224 41.9496C141.224 47.9631 142.828 52.6092 146.036 55.8858C149.286 59.2077 153.616 60.8694 159.022 60.8694C163.655 60.8694 167.409 59.829 170.29 57.7455C173.169 55.6623 175.076 52.5747 176.011 48.4791L167.727 47.847C167.33 50.07 166.416 51.732 164.988 52.8306C163.56 53.9079 161.548 54.4476 158.951 54.4476C153.008 54.4476 149.966 51.0999 149.826 44.4069H176.572L176.609 43.2138C176.609 40.335 176.256 37.6905 175.556 35.2803ZM151.72 32.754C153.219 30.6471 155.629 29.5935 158.951 29.5935C160.565 29.5935 161.924 29.8149 163.023 30.2601C164.124 30.705 165.072 31.4187 165.867 32.4015C166.486 33.1641 166.962 34.0323 167.271 34.9641C167.62 35.9364 167.833 36.9522 167.903 37.9827H149.895C150.106 35.8995 150.714 34.1559 151.72 32.754ZM209.605 25.4526C207.195 23.8831 204.411 23.1005 201.253 23.1005H201.248C198.956 23.1005 196.862 23.5671 194.966 24.5044C193.1 25.4139 191.503 26.7927 190.331 28.5056V9.65653H181.838V59.9922H190.333V55.0431C191.409 56.8215 192.935 58.2858 194.755 59.2893C196.652 60.3429 198.745 60.8694 201.037 60.8694C204.222 60.8694 207.04 60.1083 209.502 58.5885C211.957 57.0684 213.865 54.8904 215.221 52.0587C216.602 49.2036 217.294 45.8583 217.294 42.0204C217.294 38.2752 216.612 34.977 215.258 32.1219C213.923 29.2431 212.039 27.0199 209.605 25.4526ZM205.989 51.5322C204.632 53.5917 202.317 54.6195 199.038 54.6195C196.088 54.6195 193.867 53.5551 192.371 51.4266C190.872 49.2981 190.124 46.185 190.124 42.0894C190.124 38.1333 190.79 35.046 192.124 32.8227C193.482 30.576 195.763 29.4537 198.969 29.4537C202.246 29.4537 204.574 30.4836 205.955 32.541C207.337 34.5771 208.025 37.7376 208.025 42.0204C208.025 46.3011 207.348 49.4724 205.989 51.5322ZM231.091 9.65653H222.596V59.9922H231.091V9.65653ZM244.851 58.6227C247.614 60.1212 250.888 60.8694 254.681 60.8694C258.332 60.8694 261.537 60.0849 264.298 58.5195C267.039 56.9955 269.273 54.7005 270.722 51.9192C272.242 49.0638 273.003 45.7635 273.003 42.0204C273.003 38.4171 272.255 35.1855 270.757 32.3325C269.32 29.518 267.102 27.1776 264.369 25.5924C261.606 23.9777 258.377 23.1693 254.681 23.1693C250.959 23.1693 247.706 23.9777 244.922 25.5924C242.195 27.1708 239.978 29.4971 238.532 32.2959C237.059 35.1276 236.322 38.3697 236.322 42.0204C236.322 45.9054 237.046 49.2618 238.498 52.0932C239.909 54.8601 242.124 57.1359 244.851 58.6227ZM261.735 51.5685C260.307 53.5809 257.955 54.5871 254.681 54.5871C252.458 54.5871 250.667 54.1422 249.31 53.2521C247.951 52.3404 246.969 50.9709 246.36 49.1457C245.752 47.2965 245.449 44.9208 245.449 42.0183C245.449 37.6668 246.162 34.4847 247.59 32.4723C249.041 30.4599 251.404 29.4537 254.681 29.4537C257.934 29.4537 260.273 30.4599 261.7 32.4723C263.152 34.4847 263.876 37.6668 263.876 42.0204C263.876 46.3722 263.163 49.554 261.735 51.5685ZM284.588 58.6227C287.327 60.1212 290.591 60.8694 294.383 60.8694C297.331 60.8694 299.965 60.3558 302.28 59.3259C304.599 58.296 306.48 56.8575 307.932 55.0086C309.387 53.124 310.341 50.901 310.704 48.5478L302.526 47.7072C301.965 49.9518 301.029 51.6267 299.717 52.7253C298.408 53.826 296.628 54.3765 294.383 54.3765C292.089 54.3765 290.288 53.9079 288.976 52.9704C287.666 52.0116 286.753 50.6442 286.239 48.864C285.723 47.0622 285.467 44.781 285.467 42.0204C285.467 39.3051 285.723 37.0584 286.239 35.2803C286.753 33.4785 287.653 32.0982 288.941 31.1373C290.253 30.1545 292.066 29.6644 294.383 29.6644C296.862 29.6644 298.7 30.3546 299.894 31.7349C301.11 33.0915 301.977 34.9512 302.49 37.3164L310.53 35.8758C309.759 32.0379 308.013 28.9614 305.298 26.6458C302.607 24.3282 298.969 23.1714 294.383 23.1714C290.638 23.1714 287.398 23.967 284.659 25.5579C281.954 27.1147 279.769 29.4346 278.376 32.2272C276.925 35.0589 276.198 38.3226 276.198 42.0204C276.198 45.927 276.912 49.2981 278.34 52.1298C279.791 54.9612 281.874 57.1263 284.588 58.6227ZM323.73 46.6536L327.696 42.861L338.226 59.9922H348.021L333.453 37.4196L347.565 24.0465H336.54L323.73 37.1766V9.65653H315.234V59.9922H323.73V46.6536ZM355.464 59.5707C357.852 60.4371 360.507 60.8691 363.432 60.8691C367.902 60.8691 371.586 59.979 374.49 58.2033C377.415 56.4231 378.879 53.5206 378.879 49.4958C378.879 46.8747 378.198 44.8152 376.842 43.3188C375.486 41.7966 373.869 40.7085 371.997 40.053C370.149 39.3756 367.632 38.6856 364.452 37.9824C362.601 37.5846 361.14 37.2105 360.063 36.8601C358.986 36.5076 358.119 36.0516 357.465 35.4906C356.835 34.9272 356.517 34.2027 356.517 33.3147C356.517 32.0034 357.102 31.0101 358.272 30.3306C359.442 29.6512 360.894 29.3115 362.625 29.3115C364.917 29.3115 366.708 29.8619 367.998 30.9627C369.306 32.0634 370.008 33.7125 370.101 35.9121L377.964 34.6134C377.589 30.5886 376.011 27.6753 373.224 25.8715C370.464 24.072 366.93 23.169 362.625 23.169C360.096 23.169 357.759 23.5538 355.605 24.3278C353.475 25.076 351.756 26.2585 350.445 27.8753C349.134 29.4878 348.48 31.5237 348.48 33.9813C348.48 36.2517 349.041 38.0877 350.163 39.4917C351.306 40.9107 352.776 42.0306 354.447 42.7554C356.178 43.5057 358.353 44.2197 360.975 44.8968L363.153 45.4236C364.605 45.768 366.045 46.1661 367.47 46.6167C368.451 46.9221 369.258 47.3436 369.891 47.8809C370.524 48.4185 370.839 49.1217 370.839 49.9881C370.839 51.5082 370.206 52.6797 368.943 53.4969C367.704 54.318 365.889 54.7266 363.504 54.7266C361.068 54.7266 359.127 54.1182 357.675 52.9014C356.226 51.6843 355.488 49.9299 355.464 47.6358L347.463 48.5475C347.553 51.3102 348.315 53.6151 349.743 55.464C351.195 57.3132 353.1 58.6806 355.464 59.5707Z" fill="black"/>
<path fill-rule="evenodd" clip-rule="evenodd" d="M40.5 27H0L12 39V55.5L40.5 27Z" fill="black"/>
<path fill-rule="evenodd" clip-rule="evenodd" d="M19.5 60H60L48 48V31.5L19.5 60Z" fill="black"/>
</svg>
