<svg width="101" height="96" viewBox="0 0 101 96" fill="none" xmlns="http://www.w3.org/2000/svg">
<path d="M69.3267 66.8344C73.0169 66.4523 75.8165 63.2711 75.6892 59.4531C75.5622 55.6355 72.3806 52.5812 68.563 52.5812H68.3087C64.3634 52.7086 61.3095 56.0172 61.4368 59.9621C61.5642 61.8711 62.3275 63.5254 63.4728 64.6707C59.1462 73.1973 52.529 79.4328 42.6032 84.6504C35.8587 88.2137 28.8599 89.4863 21.861 88.5957C16.1344 87.832 11.6805 85.2871 8.88054 81.0871C4.80866 74.8515 4.42701 68.1066 7.86296 61.3621C10.2809 56.5262 14.0981 52.9629 16.5161 51.1812C16.0071 49.5269 15.2434 46.7273 14.8618 44.6914C-3.59018 58.0535 -1.6812 76.1242 3.91803 84.6504C8.11725 91.0136 16.6434 94.9586 26.0602 94.9586C28.6052 94.9586 31.1501 94.7039 33.6954 94.0679C49.9841 90.8863 62.3279 81.2144 69.3267 66.8344ZM91.7236 51.0543C82.0521 39.7281 67.7997 33.4926 51.511 33.4926H49.4751C48.3298 31.2019 45.9118 29.6746 43.2396 29.6746H42.9849C39.0403 29.8019 35.9864 33.1105 36.1134 37.0558C36.2407 40.8734 39.422 43.9277 43.2396 43.9277H43.4939C46.2935 43.8004 48.7114 42.0187 49.7294 39.6008H52.02C61.6915 39.6008 70.8536 42.4004 79.1255 47.8726C85.488 52.0723 90.0693 57.5445 92.6142 64.1617C94.7775 69.5066 94.6502 74.7242 92.3595 79.1785C88.7966 85.923 82.8158 89.6137 74.9259 89.6137C69.8357 89.6137 65.0001 88.0863 62.4548 86.941C61.0552 88.2137 58.5099 90.2496 56.7282 91.5226C62.2005 94.0676 67.7997 95.4676 73.1443 95.4676C85.3607 95.4676 94.3959 88.7226 97.8318 81.9781C101.522 74.5969 101.267 61.8711 91.7236 51.0543ZM27.0782 68.9973C27.2056 72.8152 30.3868 75.8691 34.2044 75.8691H34.4591C38.404 75.7422 41.4579 72.4332 41.3306 68.4883C41.2036 64.6703 38.022 61.6164 34.2044 61.6164H33.9501C33.6954 61.6164 33.3134 61.6164 33.0595 61.7433C27.8419 53.0898 25.6786 43.673 26.4423 33.4922C26.9509 25.8566 29.4962 19.239 33.9501 13.7668C37.6403 9.05819 44.7665 6.76757 49.6025 6.64061C63.0911 6.38592 68.8173 23.184 69.1993 29.9289C70.8536 30.3105 73.6533 31.2015 75.5622 31.8379C74.0349 11.2223 61.3095 0.53241 49.0935 0.53241C37.6403 0.53241 27.0782 8.80428 22.8786 21.0211C17.0251 37.3101 20.8427 52.9629 27.9688 65.307C27.3329 66.1976 26.9509 67.5976 27.0782 68.9976V68.9973Z" fill="#764ABC"/>
</svg>
