<svg width="101" height="101" viewBox="0 0 101 101" fill="none" xmlns="http://www.w3.org/2000/svg">
<path d="M90.3339 20.331C84.2893 12.5036 76.0592 6.64466 66.6846 3.49502C57.3099 0.345383 47.2118 0.046567 37.6673 2.63636C28.1228 5.22616 19.5607 10.5882 13.0639 18.0444C6.56699 25.5006 2.4272 34.7161 1.16806 44.5252C-0.0910856 54.3343 1.58698 64.2965 5.99001 73.1519C10.3931 82.0072 17.3233 89.358 25.9042 94.2744C34.4852 99.1909 44.3314 101.452 54.1976 100.772C64.0638 100.093 73.5068 96.5023 81.3324 90.4554C103.176 73.5743 107.207 42.1823 90.3323 20.331H90.3339Z" fill="#FF6C37"/>
<path d="M67.6245 32.7496L46.542 53.9995L40.5843 47.8745C61.334 27.1247 63.4168 28.9996 67.6261 32.7496H67.6245Z" fill="white"/>
<path d="M46.542 54.5806C46.3553 54.576 46.177 54.5019 46.042 54.3728L40.0421 48.3729C39.907 48.233 39.8315 48.0462 39.8315 47.8518C39.8315 47.6574 39.907 47.4705 40.0421 47.3307C60.4997 26.8731 63.2919 27.8309 68.1246 32.2058C68.2056 32.2706 68.2703 32.3533 68.3137 32.4474C68.3571 32.5415 68.3779 32.6444 68.3746 32.748C68.4059 32.9511 68.3278 33.159 68.1668 33.2902L47.0842 54.3744C46.9364 54.5099 46.7426 54.5842 46.542 54.5822V54.5806ZM41.6249 47.8729L46.542 52.79L66.5418 32.7902C65.8513 31.9248 64.866 31.3444 63.7743 31.1599C62.6826 30.9754 61.5613 31.1998 60.6247 31.7902C56.9997 33.4152 51.167 38.373 41.6249 47.8729Z" fill="#FF6C37"/>
<path d="M52.5841 59.8742L46.8341 53.9993L67.9168 33.1652C73.584 38.7073 65.1669 47.9572 52.5841 59.8727V59.8742Z" fill="white"/>
<path d="M52.5842 60.6243C52.3998 60.6096 52.2247 60.5369 52.0842 60.4165L46.2093 54.6665C46.1212 54.4529 46.1212 54.213 46.2093 53.9993C46.1468 53.824 46.1468 53.6325 46.2093 53.4572L67.2919 32.3746C67.4385 32.2368 67.6321 32.1601 67.8333 32.1601C68.0345 32.1601 68.2281 32.2368 68.3747 32.3746C69.0575 33.003 69.5969 33.7711 69.9563 34.6265C70.3157 35.482 70.4866 36.4049 70.4575 37.3324C70.4575 42.9573 64.0404 50.04 53.1248 60.3743C52.979 60.5186 52.7871 60.6071 52.5827 60.6243H52.5842ZM47.9171 53.9993L52.6249 58.7055C60.9576 50.8306 68.9169 42.7057 68.9575 37.2058C69.0029 36.0398 68.6174 34.898 67.8747 33.998L47.9171 53.9993Z" fill="#FF6C37"/>
<path d="M40.7499 47.9995L44.9171 52.1666C44.9437 52.1901 44.965 52.219 44.9795 52.2513C44.9941 52.2836 45.0017 52.3187 45.0017 52.3541C45.0017 52.3896 44.9941 52.4247 44.9795 52.457C44.965 52.4893 44.9437 52.5182 44.9171 52.5416L36.125 54.4166C35.9475 54.4549 35.7623 54.4342 35.5977 54.3575C35.4331 54.2809 35.2981 54.1526 35.2132 53.9921C35.1283 53.8316 35.0981 53.6478 35.1273 53.4686C35.1565 53.2894 35.2435 53.1246 35.375 52.9994L40.4999 47.9167C40.4999 47.9167 40.6671 47.9167 40.7499 47.9995Z" fill="white"/>
<path d="M35.9171 55.2494C35.6393 55.2459 35.367 55.1713 35.1263 55.0326C34.8856 54.8939 34.6845 54.6958 34.5421 54.4572C34.3819 54.155 34.3238 53.8091 34.3764 53.4712C34.4291 53.1332 34.5897 52.8214 34.8343 52.5822L39.917 47.4573C40.1003 47.2935 40.3376 47.2029 40.5834 47.2029C40.8293 47.2029 41.0665 47.2935 41.2498 47.4573L45.417 51.6244C45.6638 51.8588 45.7607 52.2135 45.667 52.5416C45.5732 52.8697 45.2982 53.1307 44.9592 53.2088L36.1671 55.0838L35.9171 55.2494ZM40.5842 48.9167L35.8765 53.6244L43.6685 51.9572L40.5842 48.9167Z" fill="#FF6C37"/>
<path d="M78.834 21.0404C75.8184 18.131 71.0809 18.0091 67.9183 20.7544C64.7558 23.4997 64.2152 28.2122 66.6777 31.6028C69.1402 34.9934 73.7824 35.9433 77.3762 33.7902L71.709 28.1231L78.834 21.0404Z" fill="white"/>
<path d="M73.209 35.7059C71.4765 35.6837 69.7888 35.1521 68.3562 34.1774C66.9236 33.2028 65.8095 31.8281 65.1528 30.2247C64.4965 28.6225 64.3243 26.863 64.6576 25.164C64.9908 23.465 65.8149 21.9009 67.0278 20.6654C68.696 19.0278 70.9402 18.1104 73.2778 18.1104C75.6154 18.1104 77.8596 19.0278 79.5278 20.6654C79.6872 20.7997 79.7778 20.9982 79.7778 21.2075C79.7774 21.3106 79.7549 21.4123 79.7117 21.5058C79.6686 21.5994 79.6059 21.6825 79.5278 21.7497L72.7778 28.1247L77.9028 33.1668C77.9858 33.2461 78.0482 33.3445 78.0844 33.4535C78.1206 33.5624 78.1296 33.6786 78.1106 33.7918C78.0982 33.9011 78.062 34.0063 78.0045 34.1C77.947 34.1937 77.8696 34.2736 77.7778 34.334C76.4009 35.1946 74.8182 35.6695 73.195 35.709L73.209 35.7059ZM73.209 19.5388C70.2403 19.5544 67.584 21.3404 66.47 24.07C65.3559 26.7997 65.9622 29.9419 68.0434 32.0387C69.0786 33.0799 70.4041 33.7843 71.8464 34.0594C73.2886 34.3346 74.7804 34.1678 76.1262 33.5809L71.209 28.6637C71.1309 28.6012 71.0678 28.5219 71.0244 28.4317C70.981 28.3415 70.9585 28.2427 70.9585 28.1427C70.9585 28.0426 70.981 27.9438 71.0244 27.8536C71.0678 27.7634 71.1309 27.6841 71.209 27.6216L77.709 21.0794C76.4169 20.0892 74.8369 19.5477 73.209 19.5372V19.5388Z" fill="#FF6C37"/>
<path d="M78.9589 21.1653L71.834 28.248L77.5011 33.9152C78.0715 33.5877 78.6025 33.1961 79.0839 32.748C80.5692 31.1781 81.3864 29.0925 81.3631 26.9314C81.3398 24.7703 80.4777 22.7028 78.9589 21.1653Z" fill="white"/>
<path d="M77.3746 34.5403C77.281 34.5453 77.1875 34.5293 77.1009 34.4933C77.0144 34.4574 76.937 34.4024 76.8746 34.3325L71.2074 28.6653C71.1293 28.6028 71.0662 28.5235 71.0228 28.4333C70.9794 28.3431 70.9569 28.2443 70.9569 28.1442C70.9569 28.0441 70.9794 27.9453 71.0228 27.8551C71.0662 27.7649 71.1293 27.6856 71.2074 27.6231L78.2902 20.6654C78.3586 20.5622 78.4515 20.4776 78.5605 20.4191C78.6696 20.3606 78.7914 20.3299 78.9152 20.3299C79.039 20.3299 79.1608 20.3606 79.2698 20.4191C79.3789 20.4776 79.4718 20.5622 79.5402 20.6654C80.3717 21.4801 81.0322 22.4525 81.4832 23.5257C81.9342 24.5988 82.1664 25.7512 82.1664 26.9153C82.1664 28.0794 81.9342 29.2318 81.4832 30.305C81.0322 31.3782 80.3717 32.3506 79.5402 33.1653C79.0497 33.6855 78.4885 34.1342 77.873 34.4981C77.718 34.5762 77.5389 34.5913 77.373 34.5403H77.3746ZM72.7918 28.1247L77.4996 32.8325C77.8234 32.6055 78.13 32.3548 78.4168 32.0825C79.8007 30.7023 80.5802 28.8292 80.5839 26.8747C80.5871 25.1256 79.9496 23.4358 78.7917 22.1247L72.7918 28.1247Z" fill="#FF6C37"/>
<path d="M68.4997 33.6246C67.9353 33.0946 67.1903 32.7997 66.4161 32.7997C65.6419 32.7997 64.8969 33.0946 64.3325 33.6246L45.4592 52.4557L48.5842 55.6229L68.5419 38.123C68.8462 37.8313 69.0877 37.4804 69.2513 37.0919C69.4149 36.7034 69.4973 36.2855 69.4933 35.8639C69.4894 35.4424 69.3992 35.0261 69.2283 34.6407C69.0574 34.2553 68.8095 33.909 68.4997 33.623V33.6246Z" fill="white"/>
<path d="M48.4171 56.3744C48.2303 56.3698 48.052 56.2957 47.9171 56.1666L44.7499 52.9994C44.6148 52.8596 44.5393 52.6728 44.5393 52.4783C44.5393 52.2839 44.6148 52.0971 44.7499 51.9572L63.6247 33.1652C64.1684 32.6222 64.8626 32.2551 65.6175 32.1114C66.3723 31.9677 67.1529 32.0542 67.858 32.3595C68.5631 32.6648 69.1602 33.1749 69.5719 33.8237C69.9836 34.4725 70.1909 35.23 70.1669 35.998C70.1452 36.5193 70.0198 37.031 69.7979 37.5032C69.576 37.9754 69.2622 38.3986 68.8747 38.748L48.917 56.2478C48.7719 56.3506 48.5935 56.3952 48.4171 56.3728V56.3744ZM46.2093 52.4557L48.2921 54.5807L67.8747 37.5386C68.3591 37.1167 68.6481 36.5136 68.6669 35.8714C68.6856 35.2293 68.4325 34.6011 67.9591 34.1637C67.5219 33.7283 66.93 33.4838 66.313 33.4838C65.696 33.4838 65.1041 33.7283 64.6669 34.1637L46.2093 52.4557Z" fill="#FF6C37"/>
<path d="M30.8344 73.9149C30.7811 73.9873 30.7523 74.0749 30.7523 74.1649C30.7523 74.2548 30.7811 74.3424 30.8344 74.4149L31.6672 78.0399C31.7005 78.2532 31.6689 78.4716 31.5764 78.6667C31.4838 78.8618 31.3347 79.0245 31.1484 79.1336C30.9628 79.2422 30.7475 79.289 30.5335 79.2674C30.3195 79.2458 30.118 79.1568 29.9578 79.0133L24.2501 73.5133L42.042 55.5807H48.2092L52.3763 59.7478C45.8759 65.4312 38.6279 70.1979 30.8344 73.9149Z" fill="white"/>
<path d="M30.4594 80.0398C29.9875 80.0305 29.5219 79.8367 29.2094 79.4976L23.7516 74.0399C23.6735 73.9774 23.6104 73.8981 23.567 73.8079C23.5236 73.7177 23.5011 73.6189 23.5011 73.5188C23.5011 73.4187 23.5236 73.3199 23.567 73.2297C23.6104 73.1395 23.6735 73.0602 23.7516 72.9977L41.6671 55.04C41.7674 54.9334 41.8985 54.8608 42.0421 54.8322H48.2498C48.4116 54.775 48.5881 54.775 48.7498 54.8322L52.917 58.9994C52.9962 59.0724 53.0565 59.1637 53.0927 59.2652C53.1289 59.3667 53.1399 59.4755 53.1248 59.5822C53.1277 59.6857 53.1067 59.7885 53.0633 59.8826C53.02 59.9766 52.9555 60.0594 52.8748 60.1244L52.542 60.4166C46.0154 65.8576 38.8349 70.4625 31.1672 74.1243L31.9594 77.4992C32.0206 77.7596 32.023 78.0303 31.9662 78.2917C31.9095 78.5531 31.7952 78.7985 31.6315 79.01C31.4679 79.2216 31.2591 79.3939 31.0203 79.5145C30.7816 79.6351 30.519 79.7009 30.2516 79.707L30.4594 80.0398ZM25.3766 73.4977L30.2922 78.4555C30.338 78.4963 30.3972 78.5189 30.4586 78.5189C30.52 78.5189 30.5792 78.4963 30.625 78.4555C30.6556 78.4129 30.6721 78.3618 30.6721 78.3094C30.6721 78.2569 30.6556 78.2058 30.625 78.1633L29.7922 74.5383C29.7266 74.2782 29.7529 74.0033 29.8669 73.7604C29.9808 73.5175 30.1752 73.3214 30.4172 73.2055C37.8787 69.5926 44.8741 65.0873 51.2498 59.7884L47.8327 56.3713H42.2499L25.3766 73.4977Z" fill="#FF6C37"/>
<path d="M19.9594 77.7898L24.1266 73.6227L30.5437 80.0398L20.336 79.332C20.1607 79.3182 19.9943 79.2495 19.8604 79.1355C19.7265 79.0216 19.6321 78.8683 19.5905 78.6975C19.5489 78.5267 19.5624 78.3471 19.6289 78.1844C19.6954 78.0216 19.8117 77.8841 19.961 77.7913L19.9594 77.7898Z" fill="white"/>
<path d="M30.6672 80.6648L20.5001 79.957C19.897 79.9008 19.3782 79.4883 19.1657 78.9367C18.9532 78.3852 19.0829 77.7305 19.5001 77.2898L23.6672 73.1227C23.8071 72.9876 23.9939 72.9121 24.1883 72.9121C24.3828 72.9121 24.5696 72.9876 24.7094 73.1227L31.0843 79.4976C31.1726 79.6186 31.2202 79.7644 31.2202 79.9141C31.2202 80.0637 31.1726 80.2096 31.0843 80.3305C30.988 80.4863 30.8405 80.6039 30.6672 80.6633V80.6648ZM20.5001 78.332L28.8328 78.8742L24.25 74.582L20.5001 78.332Z" fill="#FF6C37"/>
<path d="M48.7919 56.0838L40.3749 57.3759L45.2498 52.5432L48.7919 56.0838Z" fill="white"/>
<path d="M40.3749 58.1651C40.235 58.1687 40.0972 58.1311 39.9785 58.0569C39.8599 57.9827 39.7657 57.8753 39.7077 57.7479C39.619 57.6272 39.5712 57.4813 39.5712 57.3315C39.5712 57.1817 39.619 57.0358 39.7077 56.9151L44.5404 52.0401C44.687 51.9023 44.8807 51.8256 45.0818 51.8256C45.283 51.8256 45.4766 51.9023 45.6232 52.0401L49.1669 55.5807C49.2377 55.693 49.2753 55.823 49.2753 55.9557C49.2753 56.0884 49.2377 56.2184 49.1669 56.3307C49.1322 56.4675 49.0587 56.5914 48.9553 56.6876C48.852 56.7838 48.7231 56.8481 48.5841 56.8729L40.2515 58.1651H40.3749ZM45.2498 53.6229L42.542 56.3307L47.2091 55.6229L45.2498 53.6229Z" fill="#FF6C37"/>
<path d="M48.7919 56.0807L42.917 56.8307C42.7598 56.8664 42.5953 56.8505 42.4478 56.7853C42.3004 56.7201 42.1778 56.6092 42.0984 56.4689C42.019 56.3286 41.9868 56.1664 42.0068 56.0065C42.0268 55.8465 42.0978 55.6972 42.2092 55.5807L45.2514 52.5385L48.7919 56.0807Z" fill="white"/>
<path d="M42.7499 57.6244C42.4776 57.6218 42.2108 57.5472 41.9767 57.408C41.7426 57.2689 41.5495 57.0702 41.4171 56.8323C41.258 56.547 41.1963 56.2177 41.2414 55.8942C41.2866 55.5708 41.436 55.2709 41.6671 55.0401L44.7093 51.9979C44.8559 51.8602 45.0495 51.7835 45.2507 51.7835C45.4519 51.7835 45.6455 51.8602 45.7921 51.9979L49.3342 55.5401C49.4396 55.6399 49.5137 55.7681 49.5476 55.9092C49.5815 56.0503 49.5738 56.1982 49.5253 56.335C49.4769 56.4718 49.3898 56.5915 49.2746 56.6798C49.1594 56.7681 49.0211 56.821 48.8764 56.8323L43.0437 57.5823L42.7499 57.6244ZM42.7499 56.0823L47.1671 55.5401L45.2093 53.5823L42.7093 56.0823H42.7499ZM78.9996 25.9575C78.9211 25.826 78.7971 25.7279 78.6511 25.6818C78.505 25.6357 78.3472 25.6449 78.2074 25.7075C78.1385 25.7424 78.0772 25.7908 78.0273 25.8499C77.9774 25.9089 77.9398 25.9774 77.9168 26.0512C77.8704 26.2002 77.885 26.3614 77.9574 26.4996C78.2496 27.1137 78.1684 27.8403 77.7496 28.3746C77.6976 28.4261 77.6569 28.4878 77.63 28.5559C77.6031 28.6239 77.5906 28.6968 77.5934 28.7699C77.5949 28.9165 77.6505 29.0573 77.7496 29.1653C77.8565 29.2075 77.9755 29.2075 78.0824 29.1653C78.1794 29.1896 78.2813 29.187 78.3769 29.1575C78.4725 29.128 78.5582 29.0729 78.6246 28.9981C78.9677 28.578 79.185 28.0694 79.2513 27.5311C79.3177 26.9928 79.2304 26.4467 78.9996 25.9559V25.9575Z" fill="#FF6C37"/>
</svg>
