<svg width="101" height="100" viewBox="0 0 101 100" fill="none" xmlns="http://www.w3.org/2000/svg">
<path d="M74.5707 19.0476H79.3326C80.6659 19.0476 81.7135 20.0952 81.7135 21.4286C81.7135 22.7619 80.6659 23.8095 79.3326 23.8095H74.5707C73.2373 23.8095 72.1897 22.7619 72.1897 21.4286C72.1897 20.0952 73.2373 19.0476 74.5707 19.0476Z" fill="#56B3B4"/>
<path d="M3.14206 95.2382H26.9516C28.2849 95.2382 29.3325 96.2858 29.3325 97.6191C29.3325 98.9525 28.2849 100 26.9516 100H3.14206C1.80873 100 0.761108 98.9525 0.761108 97.6191C0.761108 96.2858 1.80873 95.2382 3.14206 95.2382Z" fill="#EA5E5E"/>
<path d="M60.285 57.1429H74.5706C75.9039 57.1429 76.9515 58.1905 76.9515 59.5238C76.9515 60.8571 75.9039 61.9046 74.5706 61.9046H60.285C58.9517 61.9046 57.9041 60.8571 57.9041 59.5238C57.9041 58.1905 58.9517 57.1429 60.285 57.1429Z" fill="#BF85BF"/>
<path d="M31.7135 57.1429H50.7612C52.0945 57.1429 53.1422 58.1905 53.1422 59.5238C53.1422 60.8571 52.0945 61.9046 50.7612 61.9046H31.7135C30.3802 61.9046 29.3326 60.8571 29.3326 59.5238C29.3326 58.1905 30.3802 57.1429 31.7135 57.1429Z" fill="#EA5E5E"/>
<path d="M3.14206 57.1429H22.1897C23.523 57.1429 24.5707 58.1905 24.5707 59.5238C24.5707 60.8571 23.523 61.9046 22.1897 61.9046H3.14206C1.80873 61.9046 0.761108 60.8571 0.761108 59.5238C0.761108 58.1905 1.80873 57.1429 3.14206 57.1429Z" fill="#56B3B4"/>
<path d="M3.14206 76.1904H26.9516C28.2849 76.1904 29.3325 77.2381 29.3325 78.5714C29.3325 79.9047 28.2849 80.9524 26.9516 80.9524H3.14206C1.80873 80.9524 0.761108 79.9047 0.761108 78.5714C0.761108 77.2381 1.80873 76.1904 3.14206 76.1904Z" fill="#BF85BF"/>
<path d="M3.14206 38.0952H26.9516C28.2849 38.0952 29.3325 39.1429 29.3325 40.4762C29.3325 41.8096 28.2849 42.8572 26.9516 42.8572H3.14206C1.80873 42.8572 0.761108 41.8096 0.761108 40.4762C0.761108 39.1429 1.80873 38.0952 3.14206 38.0952Z" fill="#BF85BF"/>
<path d="M26.9516 9.5238H74.5706C75.9039 9.5238 76.9515 10.5714 76.9515 11.9048C76.9515 13.2381 75.9039 14.2857 74.5706 14.2857H26.9516C25.6182 14.2857 24.5706 13.2381 24.5706 11.9048C24.5706 10.5714 25.6182 9.5238 26.9516 9.5238Z" fill="#F7BA3E"/>
<path d="M3.14206 9.5238H17.4278C18.7611 9.5238 19.8087 10.5714 19.8087 11.9048C19.8087 13.2381 18.7611 14.2857 17.4278 14.2857H3.14206C1.80873 14.2857 0.761108 13.2381 0.761108 11.9048C0.761108 10.5714 1.80873 9.5238 3.14206 9.5238Z" fill="#EA5E5E"/>
<path d="M22.1897 85.7142H26.9516C28.285 85.7142 29.3326 86.7619 29.3326 88.0952C29.3326 89.4285 28.285 90.4762 26.9516 90.4762H22.1897C20.8563 90.4762 19.8087 89.4285 19.8087 88.0952C19.8087 86.7619 20.8563 85.7142 22.1897 85.7142Z" fill="#F7BA3E"/>
<path d="M22.1897 28.5715H26.9516C28.285 28.5715 29.3326 29.6191 29.3326 30.9524C29.3326 32.2857 28.285 33.3333 26.9516 33.3333H22.1897C20.8563 33.3333 19.8087 32.2857 19.8087 30.9524C19.8087 29.6191 20.8563 28.5715 22.1897 28.5715Z" fill="#56B3B4"/>
<path d="M3.14206 85.7142H12.6659C13.9992 85.7142 15.0468 86.7619 15.0468 88.0952C15.0468 89.4285 13.9992 90.4762 12.6659 90.4762H3.14206C1.80873 90.4762 0.761108 89.4285 0.761108 88.0952C0.761108 86.7619 1.80873 85.7142 3.14206 85.7142Z" fill="#56B3B4"/>
<path d="M3.14206 28.5715H12.6659C13.9992 28.5715 15.0468 29.6191 15.0468 30.9524C15.0468 32.2857 13.9992 33.3333 12.6659 33.3333H3.14206C1.80873 33.3333 0.761108 32.2857 0.761108 30.9524C0.761108 29.6191 1.80873 28.5715 3.14206 28.5715Z" fill="#F7BA3E"/>
<path opacity="0.5" d="M65.0469 85.7142H69.8087C71.142 85.7142 72.1896 86.7619 72.1896 88.0952C72.1896 89.4285 71.142 90.4762 69.8087 90.4762H65.0469C63.7136 90.4762 62.666 89.4285 62.666 88.0952C62.666 86.7619 63.7136 85.7142 65.0469 85.7142Z" fill="#D0D4D8"/>
<path opacity="0.5" d="M36.4754 85.7142H55.5231C56.8564 85.7142 57.9041 86.7619 57.9041 88.0952C57.9041 89.4285 56.8564 90.4762 55.5231 90.4762H36.4754C35.142 90.4762 34.0944 89.4285 34.0944 88.0952C34.0944 86.7619 35.142 85.7142 36.4754 85.7142Z" fill="#D0D4D8"/>
<path opacity="0.5" d="M79.3326 85.7142H98.3802C99.7136 85.7142 100.761 86.7619 100.761 88.0952C100.761 89.4285 99.7136 90.4762 98.3802 90.4762H79.3326C77.9992 90.4762 76.9516 89.4285 76.9516 88.0952C76.9516 86.7619 77.9992 85.7142 79.3326 85.7142Z" fill="#D0D4D8"/>
<path d="M41.2373 47.619H79.3325C80.6658 47.619 81.7134 48.6666 81.7134 49.9999C81.7134 51.3332 80.6658 52.3808 79.3325 52.3808H41.2373C39.9039 52.3808 38.8563 51.3332 38.8563 49.9999C38.8563 48.6666 39.9039 47.619 41.2373 47.619Z" fill="#56B3B4"/>
<path d="M17.4278 47.619H31.7135C33.0468 47.619 34.0944 48.6666 34.0944 49.9999C34.0944 51.3332 33.0468 52.3808 31.7135 52.3808H17.4278C16.0944 52.3808 15.0468 51.3332 15.0468 49.9999C15.0468 48.6666 16.0944 47.619 17.4278 47.619Z" fill="#F7BA3E"/>
<path d="M3.14206 47.619H7.90397C9.23731 47.619 10.2849 48.6666 10.2849 49.9999C10.2849 51.3332 9.23731 52.3808 7.90397 52.3808H3.14206C1.80873 52.3808 0.761108 51.3332 0.761108 49.9999C0.761108 48.6666 1.80873 47.619 3.14206 47.619Z" fill="#EA5E5E"/>
<path d="M45.9992 19.0476H65.0468C66.3801 19.0476 67.4278 20.0952 67.4278 21.4286C67.4278 22.7619 66.3801 23.8095 65.0468 23.8095H45.9992C44.6659 23.8095 43.6183 22.7619 43.6183 21.4286C43.6183 20.0952 44.6659 19.0476 45.9992 19.0476Z" fill="#BF85BF"/>
<path d="M3.14206 19.0476H36.4754C37.8087 19.0476 38.8563 20.0952 38.8563 21.4286C38.8563 22.7619 37.8087 23.8095 36.4754 23.8095H3.14206C1.80873 23.8095 0.761108 22.7619 0.761108 21.4286C0.761108 20.0952 1.80873 19.0476 3.14206 19.0476Z" fill="#56B3B4"/>
<path d="M17.4278 66.6666H60.285C61.6184 66.6666 62.666 67.7142 62.666 69.0476C62.666 70.3809 61.6184 71.4285 60.285 71.4285H17.4278C16.0944 71.4285 15.0468 70.3809 15.0468 69.0476C15.0468 67.7142 16.0944 66.6666 17.4278 66.6666Z" fill="#F7BA3E"/>
<path d="M3.14206 66.6666H7.90397C9.23731 66.6666 10.2849 67.7142 10.2849 69.0476C10.2849 70.3809 9.23731 71.4285 7.90397 71.4285H3.14206C1.80873 71.4285 0.761108 70.3809 0.761108 69.0476C0.761108 67.7142 1.80873 66.6666 3.14206 66.6666Z" fill="#BF85BF"/>
<path d="M60.285 28.5715H84.0944C85.4277 28.5715 86.4754 29.6191 86.4754 30.9524C86.4754 32.2857 85.4277 33.3333 84.0944 33.3333H60.285C58.9517 33.3333 57.9041 32.2857 57.9041 30.9524C57.9041 29.6191 58.9517 28.5715 60.285 28.5715Z" fill="#EA5E5E"/>
<path d="M60.285 38.0952H84.0944C85.4277 38.0952 86.4754 39.1429 86.4754 40.4762C86.4754 41.8096 85.4277 42.8572 84.0944 42.8572H60.285C58.9517 42.8572 57.9041 41.8096 57.9041 40.4762C57.9041 39.1429 58.9517 38.0952 60.285 38.0952Z" fill="#F7BA3E"/>
<path d="M3.14206 0H60.2849C61.6183 0 62.6659 1.04762 62.6659 2.38095C62.6659 3.71429 61.6183 4.7619 60.2849 4.7619H3.14206C1.80873 4.7619 0.761108 3.71429 0.761108 2.38095C0.761108 1.04762 1.80873 0 3.14206 0Z" fill="#56B3B4"/>
<path opacity="0.5" d="M69.8087 0H98.3802C99.7135 0 100.761 1.04762 100.761 2.38095C100.761 3.71429 99.7135 4.7619 98.3802 4.7619H69.8087C68.4754 4.7619 67.4278 3.71429 67.4278 2.38095C67.4278 1.04762 68.4754 0 69.8087 0Z" fill="#D0D4D8"/>
<path opacity="0.5" d="M69.8087 66.6666H79.3325C80.6658 66.6666 81.7135 67.7142 81.7135 69.0476C81.7135 70.3809 80.6658 71.4285 79.3325 71.4285H69.8087C68.4754 71.4285 67.4278 70.3809 67.4278 69.0476C67.4278 67.7142 68.4754 66.6666 69.8087 66.6666Z" fill="#D0D4D8"/>
<path opacity="0.5" d="M88.8564 66.6666H98.3802C99.7136 66.6666 100.761 67.7142 100.761 69.0476C100.761 70.3809 99.7136 71.4285 98.3802 71.4285H88.8564C87.523 71.4285 86.4754 70.3809 86.4754 69.0476C86.4754 67.7142 87.523 66.6666 88.8564 66.6666Z" fill="#D0D4D8"/>
<path opacity="0.5" d="M84.0945 57.1429H98.3802C99.7136 57.1429 100.761 58.1905 100.761 59.5238C100.761 60.8571 99.7136 61.9046 98.3802 61.9046H84.0945C82.7611 61.9046 81.7135 60.8571 81.7135 59.5238C81.7135 58.1905 82.7611 57.1429 84.0945 57.1429Z" fill="#D0D4D8"/>
<path opacity="0.5" d="M84.0945 9.5238H98.3802C99.7136 9.5238 100.761 10.5714 100.761 11.9048C100.761 13.2381 99.7136 14.2857 98.3802 14.2857H84.0945C82.7611 14.2857 81.7135 13.2381 81.7135 11.9048C81.7135 10.5714 82.7611 9.5238 84.0945 9.5238Z" fill="#D0D4D8"/>
<path opacity="0.5" d="M88.8564 47.619H98.3802C99.7136 47.619 100.761 48.6666 100.761 49.9999C100.761 51.3332 99.7136 52.3808 98.3802 52.3808H88.8564C87.523 52.3808 86.4754 51.3332 86.4754 49.9999C86.4754 48.6666 87.523 47.619 88.8564 47.619Z" fill="#D0D4D8"/>
<path opacity="0.5" d="M88.8564 19.0476H98.3802C99.7136 19.0476 100.761 20.0952 100.761 21.4286C100.761 22.7619 99.7136 23.8095 98.3802 23.8095H88.8564C87.523 23.8095 86.4754 22.7619 86.4754 21.4286C86.4754 20.0952 87.523 19.0476 88.8564 19.0476Z" fill="#D0D4D8"/>
<path opacity="0.5" d="M93.6183 28.5715H98.3802C99.7135 28.5715 100.761 29.6191 100.761 30.9524C100.761 32.2857 99.7135 33.3333 98.3802 33.3333H93.6183C92.2849 33.3333 91.2373 32.2857 91.2373 30.9524C91.2373 29.6191 92.2849 28.5715 93.6183 28.5715Z" fill="#D0D4D8"/>
<path opacity="0.5" d="M93.6183 38.0952H98.3802C99.7135 38.0952 100.761 39.1429 100.761 40.4762C100.761 41.8096 99.7135 42.8572 98.3802 42.8572H93.6183C92.2849 42.8572 91.2373 41.8096 91.2373 40.4762C91.2373 39.1429 92.2849 38.0952 93.6183 38.0952Z" fill="#D0D4D8"/>
<path opacity="0.5" d="M55.5232 76.1904H98.3802C99.7135 76.1904 100.761 77.2381 100.761 78.5714C100.761 79.9047 99.7135 80.9524 98.3802 80.9524H55.5232C54.1898 80.9524 53.1422 79.9047 53.1422 78.5714C53.1422 77.2381 54.1898 76.1904 55.5232 76.1904Z" fill="#D0D4D8"/>
<path opacity="0.5" d="M36.4754 76.1904H45.9992C47.3325 76.1904 48.3801 77.2381 48.3801 78.5714C48.3801 79.9047 47.3325 80.9524 45.9992 80.9524H36.4754C35.142 80.9524 34.0944 79.9047 34.0944 78.5714C34.0944 77.2381 35.142 76.1904 36.4754 76.1904Z" fill="#D0D4D8"/>
<path opacity="0.5" d="M74.5707 95.2382H98.3803C99.7136 95.2382 100.761 96.2858 100.761 97.6191C100.761 98.9525 99.7136 100 98.3803 100H74.5707C73.2373 100 72.1897 98.9525 72.1897 97.6191C72.1897 96.2858 73.2373 95.2382 74.5707 95.2382Z" fill="#D0D4D8"/>
<path opacity="0.5" d="M36.4754 95.2382H65.0468C66.3801 95.2382 67.4277 96.2858 67.4277 97.6191C67.4277 98.9525 66.3801 100 65.0468 100H36.4754C35.142 100 34.0944 98.9525 34.0944 97.6191C34.0944 96.2858 35.142 95.2382 36.4754 95.2382Z" fill="#D0D4D8"/>
<path opacity="0.5" d="M36.4754 28.5715H50.7612C52.0945 28.5715 53.1422 29.6191 53.1422 30.9524C53.1422 32.2857 52.0945 33.3333 50.7612 33.3333H36.4754C35.142 33.3333 34.0944 32.2857 34.0944 30.9524C34.0944 29.6191 35.142 28.5715 36.4754 28.5715Z" fill="#D0D4D8"/>
<path opacity="0.5" d="M36.4754 38.0952H50.7612C52.0945 38.0952 53.1422 39.1429 53.1422 40.4762C53.1422 41.8096 52.0945 42.8572 50.7612 42.8572H36.4754C35.142 42.8572 34.0944 41.8096 34.0944 40.4762C34.0944 39.1429 35.142 38.0952 36.4754 38.0952Z" fill="#D0D4D8"/>
</svg>
